#!OML:ASF H:\Dans Jumps\Project 1\Capture day 1\Session 1\subject.ASF
:FULLY-SPECIFIED
:DEGREES
197
root 0.525681 17.5298 -13.9659 6.28242 -1.10594 -1.74862
lowerback 0.435539 -0.215325 0.79762
upperback 4.20385 -0.364474 1.77447
thorax 4.08972 -0.18933 1.3708
lowerneck -16.1246 0.683532 -2.14957
upperneck 25.7969 1.6143 -0.126309
head 10.9869 0.504196 0.545796
rclavicle -5.66536e-015 1.66979e-014
rhumerus -18.139 -9.86557 -84.8397
rradius 24.7953
rwrist 31.4996
rhand -19.3567 -26.2462
rfingers 7.12502
rthumb 6.96082 -56.1118
lclavicle -5.66536e-015 1.66979e-014
lhumerus -17.237 -8.61065 91.4197
lradius 20.338
lwrist 4.96253
lhand -24.8748 -4.14666
lfingers 7.12502
lthumb 1.63244 25.8268
rfemur -12.8849 -2.84568 20.1852
rtibia 21.2993
rfoot -13.9072 -2.48554
rtoes 6.46456
lfemur -12.1651 8.20218 -18.5324
ltibia 19.1579
lfoot -11.9962 1.87445
ltoes -8.08859
198
root 0.526049 17.5282 -13.9772 6.32556 -1.10663 -1.75067
lowerback 0.560939 -0.2168 0.798053
upperback 4.22079 -0.364567 1.78129
thorax 4.03635 -0.189531 1.37792
lowerneck -16.14 0.689201 -2.14414
upperneck 25.7057 1.62482 -0.144278
head 10.956 0.508377 0.539409
rclavicle 2.98177e-015 -1.59028e-015
rhumerus -18.0993 -9.76595 -84.8518
rradius 24.8749
rwrist 31.3913
rhand -19.3438 -26.2298
rfingers 7.12502
rthumb 6.97333 -56.0949
lclavicle 2.98177e-015 -1.59028e-015
lhumerus -17.2362 -8.6955 91.4191
lradius 20.4356
lwrist 5.08052
lhand -24.8811 -4.15393
lfingers 7.12502
lthumb 1.62638 25.8196
rfemur -13.0361 -2.78959 20.1909
rtibia 21.4164
rfoot -13.9078 -2.54087
rtoes 6.42017
lfemur -12.3315 8.18797 -18.5433
ltibia 19.3009
lfoot -12.0065 1.8929
ltoes -8.11475
199
root 0.526576 17.5262 -13.9894 6.36986 -1.10943 -1.75558
lowerback 0.699961 -0.217061 0.803909
upperback 4.23737 -0.362847 1.78826
thorax 3.97485 -0.188639 1.38225
lowerneck -16.1504 0.695365 -2.14063
upperneck 25.6078 1.6359 -0.160794
head 10.9216 0.512918 0.533888
rclavicle -9.93923e-016 -3.97569e-016
rhumerus -18.0636 -9.66532 -84.8625
rradius 24.9624
rwrist 31.2805
rhand -19.3293 -26.2126
rfingers 7.12502
rthumb 6.98732 -56.0773
lclavicle -9.93923e-016 -3.97569e-016
lhumerus -17.2434 -8.79393 91.419
lradius 20.5468
lwrist 5.21242
lhand -24.8995 -4.17282
lfingers 7.12502
lthumb 1.60863 25.8009
rfemur -13.198 -2.7328 20.1994
rtibia 21.5439
rfoot -13.9116 -2.59755
rtoes 6.35854
lfemur -12.511 8.17055 -18.5521
ltibia 19.4615
lfoot -12.0191 1.91923
ltoes -8.14068
200
root 0.527214 17.5239 -14.0023 6.41555 -1.11933 -1.76204
lowerback 0.849544 -0.215385 0.813645
upperback 4.25519 -0.358372 1.79457
thorax 3.90862 -0.18623 1.38382
lowerneck -16.1535 0.703052 -2.13797
upperneck 25.4996 1.64845 -0.175467
head 10.8819 0.518439 0.529282
rclavicle -3.97569e-015 2.38542e-015
rhumerus -18.0324 -9.54729 -84.8741
rradius 25.0639
rwrist 31.1449
rhand -19.3141 -26.1996
rfingers 7.12502
rthumb 7.00191 -56.0638
lclavicle -3.97569e-015 2.38542e-015
lhumerus -17.2539 -8.89726 91.4156
lradius 20.6682
lwrist 5.35539
lhand -24.9212 -4.19173
lfingers 7.12502
lthumb 1.5877 25.7821
rfemur -13.3722 -2.67141 20.2088
rtibia 21.6844
rfoot -13.9184 -2.6551
rtoes 6.28011
lfemur -12.7027 8.15475 -18.5605
ltibia 19.6394
lfoot -12.036 1.95209
ltoes -8.15873
